<?xml version="1.0" standalone="no"?>
<!DOCTYPE svg PUBLIC "-//W3C//DTD SVG 20010904//EN"
 "http://www.w3.org/TR/2001/REC-SVG-20010904/DTD/svg10.dtd">
<svg version="1.0" xmlns="http://www.w3.org/2000/svg"
 width="512.000000pt" height="512.000000pt" viewBox="0 0 512.000000 512.000000"
 preserveAspectRatio="xMidYMid meet">
<metadata>
Created by potrace 1.14, written by Peter Selinger 2001-2017
</metadata>
<g transform="translate(0.000000,512.000000) scale(0.100000,-0.100000)"
fill="#000000" stroke="none">
<path d="M285 5113 c-43 -4 -139 -22 -217 -40 l-68 -15 0 -2529 0 -2529 1065
0 c845 0 1065 3 1066 13 4 53 0 760 -5 787 -12 75 -70 220 -87 220 -5 0 -9 7
-9 15 0 8 -3 15 -7 15 -5 0 -19 16 -32 35 -13 19 -27 32 -32 29 -5 -3 -9 1 -9
10 0 16 -131 106 -154 106 -8 0 -17 4 -20 9 -5 8 -41 19 -121 37 -16 3 -24 9
-18 11 7 3 13 11 13 18 0 7 4 15 8 17 13 5 104 148 126 196 10 23 23 42 28 42
5 0 7 4 3 9 -3 5 0 15 7 23 7 7 15 22 16 33 2 11 9 23 15 27 7 4 9 8 4 8 -4 0
0 15 10 33 9 17 16 36 15 41 -2 4 1 13 6 20 7 9 21 48 26 76 1 3 5 11 9 17 5
7 5 17 2 23 -3 5 -2 10 4 10 5 0 8 8 6 18 -1 9 2 22 6 28 5 6 10 30 12 53 1
22 5 41 8 41 3 0 6 6 7 13 0 6 3 41 7 77 6 59 11 132 18 233 1 20 -2 37 -8 37
-7 0 -7 3 0 8 6 4 10 55 10 117 0 62 -4 113 -10 117 -7 5 -7 8 0 8 6 0 10 45
10 115 0 70 -4 115 -10 115 -7 0 -7 3 0 8 6 4 10 55 10 117 0 62 -4 113 -10
117 -7 5 -7 8 0 8 6 0 10 28 10 65 0 36 -4 65 -8 65 -5 0 -5 6 0 13 4 6 6 20
4 31 -3 21 8 16 52 -24 56 -49 223 -170 267 -192 25 -13 47 -26 50 -29 3 -4
48 -27 99 -52 l95 -44 45 15 c26 8 57 22 71 31 14 9 48 27 75 41 28 13 71 39
96 57 26 18 51 33 57 33 5 0 12 7 16 15 3 8 10 15 16 15 13 0 83 53 118 88 12
13 22 20 22 17 0 -3 17 10 37 29 21 19 39 34 40 32 2 -2 5 -20 7 -42 3 -21 5
-41 6 -44 1 -3 2 -8 1 -12 0 -5 3 -8 8 -8 5 0 7 -9 4 -20 -3 -11 -1 -20 4 -20
5 0 9 -10 10 -22 1 -32 10 -63 23 -88 6 -12 9 -24 6 -27 -3 -3 2 -12 10 -20 8
-8 12 -18 9 -23 -3 -5 -1 -11 5 -15 5 -3 10 -15 10 -25 0 -10 4 -20 8 -22 4
-1 18 -28 31 -58 13 -30 32 -67 42 -82 11 -14 19 -31 19 -37 0 -6 3 -11 8 -11
4 0 18 -20 31 -45 13 -25 28 -45 33 -45 5 0 7 -4 4 -8 -3 -5 4 -15 15 -22 10
-8 19 -18 19 -22 0 -10 34 -50 80 -95 19 -19 35 -38 36 -41 0 -4 6 -25 13 -47
7 -22 15 -53 17 -70 3 -16 10 -34 15 -39 5 -6 9 -20 9 -33 0 -13 5 -23 10 -23
6 0 10 -8 10 -17 1 -46 127 -261 210 -357 105 -124 255 -243 385 -306 28 -14
52 -28 53 -32 2 -5 15 -8 28 -8 13 0 24 -4 24 -9 0 -5 14 -11 30 -15 30 -6 30
-6 28 -66 -2 -33 1 -62 7 -64 7 -3 7 -5 0 -5 -6 -1 -9 -20 -7 -46 l4 -45 -448
-1 c-247 0 -462 -3 -479 -5 -100 -14 -226 -66 -267 -110 -13 -13 -27 -24 -32
-24 -5 0 -17 -10 -28 -22 -11 -13 -30 -35 -42 -49 -24 -27 -79 -116 -83 -134
-1 -5 -9 -29 -17 -53 -9 -23 -19 -63 -22 -90 -4 -37 -9 -724 -5 -779 1 -10
221 -13 1066 -13 l1065 0 0 2529 c-1 2384 -2 2530 -18 2535 -40 12 -100 25
-137 31 -22 4 -51 8 -65 11 -14 2 -95 6 -180 8 -165 3 -272 -8 -406 -44 -43
-11 -83 -22 -89 -23 -32 -9 -121 -41 -144 -53 -14 -8 -32 -14 -38 -14 -7 0
-13 -4 -13 -10 0 -5 -3 -9 -7 -8 -14 5 -142 -65 -137 -74 3 -5 2 -8 -3 -7 -23
4 -30 0 -90 -51 -7 -5 -15 -10 -20 -10 -4 0 -19 -12 -34 -26 -17 -17 -34 -24
-44 -20 -9 3 -14 10 -11 15 3 5 -1 12 -10 15 -9 4 -14 9 -11 12 5 5 -20 38
-60 80 -7 7 -13 17 -13 23 0 6 -6 11 -14 11 -8 0 -23 11 -34 25 -11 14 -25 25
-30 25 -6 0 -15 6 -19 13 -11 18 -169 97 -194 97 -11 0 -29 5 -40 11 -12 6
-65 12 -118 14 -117 5 -220 -14 -307 -56 -34 -16 -67 -29 -73 -29 -7 0 -14 -7
-17 -15 -4 -8 -10 -15 -15 -15 -15 0 -95 -73 -147 -135 l-24 -27 -16 23 c-23
34 -91 100 -132 130 -59 43 -181 97 -255 112 -66 13 -203 15 -270 4 -41 -7
-127 -37 -142 -49 -7 -6 -13 -7 -13 -4 0 4 -13 -2 -29 -13 -16 -12 -34 -21
-40 -21 -6 0 -11 -4 -11 -9 0 -5 -8 -12 -17 -15 -22 -7 -147 -128 -151 -146
-2 -8 -9 -18 -16 -24 -7 -6 -20 -23 -30 -39 l-17 -27 -21 20 c-12 11 -40 32
-62 47 -23 15 -43 30 -46 33 -10 10 -65 41 -82 47 -10 3 -18 10 -18 15 0 5 -4
6 -10 3 -5 -3 -10 -2 -10 3 0 10 -58 36 -72 33 -5 0 -8 3 -8 9 0 5 -6 10 -12
10 -7 1 -31 9 -53 20 -22 11 -43 19 -47 20 -4 0 -19 5 -35 12 -31 12 -38 15
-68 21 -11 3 -47 12 -80 21 -55 14 -90 21 -155 32 -33 5 -317 11 -355 7z"/>
</g>
</svg>
